<?xml version="1.0" encoding="utf-8"?>
<!-- Svg Vector Icons : http://www.onlinewebfonts.com/icon -->
<!DOCTYPE svg PUBLIC "-//W3C//DTD SVG 1.1//EN" "http://www.w3.org/Graphics/SVG/1.1/DTD/svg11.dtd">
<svg version="1.1" xmlns="http://www.w3.org/2000/svg" xmlns:xlink="http://www.w3.org/1999/xlink" x="0px" y="0px" viewBox="0 0 1000 1000" enable-background="new 0 0 1000 1000" xml:space="preserve">
<metadata> Svg Vector Icons : http://www.onlinewebfonts.com/icon </metadata>
<g><path d="M867.5,71.3H255c-67.7,0-122.5,54.8-122.5,122.5v122.5h61.3V193.8c0-33.8,27.4-61.3,61.3-61.3h612.5c33.8,0,61.3,27.4,61.3,61.3v612.5c0,33.8-27.4,61.3-61.3,61.3H255c-33.8,0-61.3-27.4-61.3-61.3V683.8h-61.3v122.5c0,67.7,54.8,122.5,122.5,122.5h612.5c67.7,0,122.5-54.8,122.5-122.5V193.8C990,126.1,935.2,71.3,867.5,71.3L867.5,71.3z M541.1,691.2c-11.9,11.9-11.9,31.4,0,43.3c11.9,12,31.4,12,43.3,0l211.3-211.3c6.4-6.4,9.1-14.9,8.7-23.2c0.4-8.3-2.3-16.8-8.7-23.2L584.5,265.5c-12-12-31.4-12-43.3,0c-11.9,11.9-11.9,31.3,0,43.3l160.6,160.5H40.6C23.7,469.4,10,483.1,10,500c0,16.9,13.7,30.6,30.6,30.6h661.1L541.1,691.2L541.1,691.2z"/></g>
</svg>