<?xml version="1.0" encoding="utf-8"?>
<!-- Generator: Adobe Illustrator 16.0.0, SVG Export Plug-In . SVG Version: 6.00 Build 0)  -->
<!DOCTYPE svg PUBLIC "-//W3C//DTD SVG 1.1//EN" "http://www.w3.org/Graphics/SVG/1.1/DTD/svg11.dtd">
<svg version="1.1" id="Layer_1" xmlns="http://www.w3.org/2000/svg" xmlns:xlink="http://www.w3.org/1999/xlink" x="0px" y="0px"
	 width="250px" height="250px" viewBox="0 0 250 250" enable-background="new 0 0 250 250" xml:space="preserve">
<g>
	<g>
		<path fill="#FFFFFF" d="M222.082,96.134c-2.116-2.318-8.118-3.052-12.945-2.34c-2.395,0.352-37.461,10.34-37.461,10.34
			c0.998,3.016,2.641,8.534-3.3,14.176c-4.052,3.424-10.294,4.444-18.401,4.29c-8.099-0.154-16.877-1.374-23.637-2.186
			c-2.196-0.264-8.288-1.044-8.288-1.044s4.288-1.912,10.106-2.104c7.26-0.23,12.972-0.182,16.266,0
			c3.604,0.202,8.784,0.634,10.95,0.712c9.899,0.356,12.254-5.786,12.302-8.226c0.124-6.892-3.91-9.182-16.42-10.19
			c-8.042-0.648-16.682-1.166-22.702-1.898c-11.606-1.424-19.942-4.58-24.194-4.968c-2.926-0.274-10.506-1.646-17.708,4.116
			c-21.846,17.466-61.308,28.404-61.308,28.426c5.958,19.042,38.83,26.17,38.83,26.17c13.974-12.202,29.46-13.708,42.706-14.176
			c2.282-0.084,24.485-0.086,44.994,2.295c4.124,0.285,7.655-1.857,7.655-1.857c30.765-19.012,57.002-29.422,57.002-29.422
			c6.225-2.262,8.055-4.962,7.959-7.032C224.307,97.454,222.105,96.162,222.082,96.134z M151.277,96.06h21.027
			c2.321,0,4.207-1.646,4.207-3.676c0-2.032-1.884-3.676-4.207-3.676h-21.027c-2.323,0-4.205,1.644-4.205,3.676
			C147.072,94.414,148.954,96.06,151.277,96.06z M151.277,84.996h21.027c2.321,0,4.207-1.646,4.207-3.676
			c0-2.032-1.884-3.674-4.207-3.674h-21.027c-2.323,0-4.205,1.644-4.205,3.674C147.072,83.348,148.954,84.996,151.277,84.996z
			 M151.277,73.928h21.027c2.321,0,4.207-1.646,4.207-3.674c0-2.032-1.884-3.676-4.207-3.676h-21.027
			c-2.323,0-4.205,1.644-4.205,3.676C147.072,72.282,148.954,73.928,151.277,73.928z M114.39,88.684h21.026
			c2.324,0,4.208-1.646,4.208-3.676c0-2.032-1.882-3.674-4.208-3.674H114.39c-2.324,0-4.204,1.644-4.204,3.674
			C110.186,87.038,112.068,88.684,114.39,88.684z M114.39,77.618h21.026c2.324,0,4.208-1.646,4.208-3.676
			c0-2.032-1.882-3.676-4.208-3.676H114.39c-2.324,0-4.204,1.644-4.204,3.676C110.186,75.972,112.068,77.618,114.39,77.618z
			 M151.277,62.864h21.027c2.321,0,4.207-1.646,4.207-3.676c0-2.032-1.884-3.676-4.207-3.676h-21.027
			c-2.323,0-4.205,1.644-4.205,3.676C147.072,61.216,148.954,62.864,151.277,62.864z"/>
	</g>
</g>
</svg>
